<svg xmlns="http://www.w3.org/2000/svg" viewBox="0 0 48 48"><defs><style>.cls-1{fill:#fff;}</style></defs><title>add_icon</title><g id="Layer_2" data-name="Layer 2"><g id="Layer_1-2" data-name="Layer 1"><path d="M48,24A24,24,0,1,1,24,0,24,24,0,0,1,48,24"/><path class="cls-1" d="M24,39A15,15,0,1,1,39,24,15,15,0,0,1,24,39m0-28.91A13.92,13.92,0,1,0,37.92,24,13.93,13.93,0,0,0,24,10.09"/><path class="cls-1" d="M31.61,24.54H16.39a.54.54,0,0,1,0-1.08H31.61a.54.54,0,0,1,0,1.08"/><path class="cls-1" d="M24,32.16a.54.54,0,0,1-.54-.54V16.39a.54.54,0,0,1,1.09,0V31.61a.54.54,0,0,1-.54.54"/></g></g></svg>