<?xml version="1.0" encoding="utf-8"?>
<!-- Generator: Adobe Illustrator 26.5.0, SVG Export Plug-In . SVG Version: 6.00 Build 0)  -->
<svg version="1.1" id="Layer_1" xmlns="http://www.w3.org/2000/svg" xmlns:xlink="http://www.w3.org/1999/xlink" x="0px" y="0px"
	 viewBox="0 0 48 48" style="enable-background:new 0 0 48 48;" xml:space="preserve">
<style type="text/css">
	.st0{fill:#4BC8F4;}
	.st1{fill:#FFFFFF;}
</style>
<path class="st0" d="M48,24c0,13.3-10.7,24-24,24S0,37.3,0,24S10.7,0,24,0S48,10.7,48,24"/>
<path class="st1" d="M24,39c-8.3,0-15-6.7-15-15S15.7,9,24,9s15,6.7,15,15S32.3,39,24,39 M24,10.1c-7.7,0-13.9,6.2-13.9,13.9
	S16.3,37.9,24,37.9S37.9,31.7,37.9,24l0,0C37.9,16.3,31.7,10.1,24,10.1"/>
<g>
	<g id="Icon-Like" transform="translate(78.000000, 528.000000)">
		<path id="Fill-4_2_" class="st1" d="M-46.9-504.6c0-1-0.7-1.5-1.8-1.5h-3c0.2-0.8,0.3-1.6,0.3-2.2c0-2.6-0.7-3.1-1.3-3.1
			c-0.4,0-0.7,0-1.1,0.3c-0.1,0.1-0.2,0.2-0.2,0.3l-0.4,2.4c-0.5,1.3-1.7,2.4-2.7,3.1v6.4c0.3,0,0.7,0.2,1.1,0.4
			c0.5,0.2,1,0.5,1.5,0.5h4.3c0.9,0,1.5-0.7,1.5-1.3c0-0.1,0-0.2,0-0.3c0.6-0.2,0.9-0.7,0.9-1.2c0-0.3-0.1-0.5-0.1-0.7
			c0.3-0.2,0.7-0.6,0.7-1.1c0-0.2-0.1-0.5-0.3-0.7C-47.1-503.8-46.9-504.2-46.9-504.6L-46.9-504.6z M-47.8-504.6
			c0,0.6-0.6,0.6-0.7,0.9c-0.1,0.3,0.4,0.4,0.4,1c0,0.6-0.7,0.6-0.8,0.8c-0.1,0.3,0.2,0.4,0.2,1c0,0,0,0.1,0,0.1
			c-0.1,0.4-0.8,0.5-0.9,0.7c-0.1,0.2,0,0.3,0,0.8c0,0.3-0.3,0.4-0.7,0.4h-4.3c-0.3,0-0.7-0.2-1.1-0.4c-0.4-0.2-0.7-0.4-1.1-0.4
			v-4.7c1.1-0.8,2.5-2.1,3.1-3.7c0,0,0-0.1,0-0.1l0.4-2.2c0.1-0.1,0.3-0.1,0.5-0.1c0.1,0,0.4,0.5,0.4,2.2c0,0.7-0.1,1.4-0.4,2.2
			h-0.1c-0.2,0-0.4,0.2-0.4,0.4c0,0.2,0.2,0.4,0.4,0.4h4C-48.2-505.2-47.8-505-47.8-504.6L-47.8-504.6z"/>
		<path id="Fill-6_2_" class="st1" d="M-57.6-498.1h-2.7c-0.5,0-0.9-0.4-0.9-0.9v-6.2c0-0.5,0.4-0.9,0.9-0.9h2.7
			c0.5,0,0.9,0.4,0.9,0.9v6.2C-56.7-498.4-57.1-498.1-57.6-498.1L-57.6-498.1z M-60.2-505.2v6.2h2.7v-6.2H-60.2L-60.2-505.2z"/>
	</g>
</g>
</svg>
