<svg xmlns="http://www.w3.org/2000/svg" viewBox="0 0 48 48"><defs><style>.cls-1{fill:#4d4d4d;}.cls-2{fill:#fff;}</style></defs><title>delete_icon</title><g id="Layer_2" data-name="Layer 2"><g id="Layer_1-2" data-name="Layer 1"><path class="cls-1" d="M48,24A24,24,0,1,1,24,0,24,24,0,0,1,48,24"/><path class="cls-2" d="M24,39A15,15,0,1,1,39,24,15,15,0,0,1,24,39m0-28.92A13.92,13.92,0,1,0,37.91,24,13.93,13.93,0,0,0,24,10.08"/><path class="cls-2" d="M18.62,29.93a.54.54,0,0,1-.38-.93L29,18.23a.54.54,0,1,1,.77.77L19,29.77a.55.55,0,0,1-.38.16"/><path class="cls-2" d="M29.38,29.93a.54.54,0,0,1-.38-.16L18.23,19a.54.54,0,0,1,.77-.77L29.77,29a.54.54,0,0,1-.38.93"/></g></g></svg>