<?xml version="1.0" encoding="utf-8"?>
<!-- Generator: Adobe Illustrator 21.1.0, SVG Export Plug-In . SVG Version: 6.00 Build 0)  -->
<svg version="1.1" id="Layer_1" xmlns="http://www.w3.org/2000/svg" xmlns:xlink="http://www.w3.org/1999/xlink" x="0px" y="0px"
	 viewBox="0 0 48 48" style="enable-background:new 0 0 48 48;" xml:space="preserve">
<style type="text/css">
	.st0{fill:#FFFFFF;}
</style>
<title>add_icon</title>
<g id="Layer_2">
	<g id="Layer_1-2">
		<path d="M48,24c0,13.3-10.7,24-24,24S0,37.3,0,24S10.7,0,24,0S48,10.7,48,24"/>
		<path class="st0" d="M24,39c-8.3,0-15-6.7-15-15S15.7,9,24,9s15,6.7,15,15S32.3,39,24,39 M24,10.1c-7.7,0-13.9,6.2-13.9,13.9
			S16.3,37.9,24,37.9S37.9,31.7,37.9,24c0,0,0,0,0,0C37.9,16.3,31.7,10.1,24,10.1"/>
	</g>
</g>
<path class="st0" d="M24,28.6l-3.8-3.8L21,24l2.5,2.5V14.9h1.1v11.6L27,24l0.8,0.8L24,28.6z M31,26.5v3.4c0,0.1-0.1,0.1-0.1,0.1
	H17.2C17.1,30,17,30,17,29.9v-3.4h-1.1v3.4c0,0.7,0.5,1.2,1.2,1.2h13.7c0.7,0,1.2-0.6,1.2-1.2v-3.4H31z"/>
</svg>
