<?xml version="1.0" encoding="utf-8"?>
<!-- Generator: Adobe Illustrator 26.5.0, SVG Export Plug-In . SVG Version: 6.00 Build 0)  -->
<svg version="1.1" id="Layer_1" xmlns="http://www.w3.org/2000/svg" xmlns:xlink="http://www.w3.org/1999/xlink" x="0px" y="0px"
	 viewBox="0 0 48 48" style="enable-background:new 0 0 48 48;" xml:space="preserve">
<style type="text/css">
	.st0{fill:#FFFFFF;}
	.st1{fill:none;stroke:#FFFFFF;}
	.st2{fill:none;stroke:#FFFFFF;stroke-linecap:round;}
</style>
<g id="Layer_2_00000068654410769515055110000014018532147914096259_">
	<g id="Layer_1-2">
		<path d="M48,24c0,13.3-10.7,24-24,24S0,37.3,0,24S10.7,0,24,0S48,10.7,48,24"/>
		<path class="st0" d="M24,39c-8.3,0-15-6.7-15-15S15.7,9,24,9s15,6.7,15,15S32.3,39,24,39 M24,10.1c-7.7,0-13.9,6.2-13.9,13.9
			S16.3,37.9,24,37.9S37.9,31.7,37.9,24l0,0C37.9,16.3,31.7,10.1,24,10.1"/>
	</g>
</g>
<g>
	<path class="st1" d="M18.3,24.9l7-8.3l0.9-0.2l2.5,2.1l-0.1,0.9l-7,8.3l-3.7,1L18.3,24.9z"/>
	<path class="st1" d="M24,17.9l3.4,3"/>
	<path class="st2" d="M17.6,30.1H30"/>
</g>
</svg>
