<?xml version="1.0" encoding="utf-8"?>
<!-- Generator: Adobe Illustrator 21.1.0, SVG Export Plug-In . SVG Version: 6.00 Build 0)  -->
<svg version="1.1" id="Layer_1" xmlns="http://www.w3.org/2000/svg" xmlns:xlink="http://www.w3.org/1999/xlink" x="0px" y="0px"
	 viewBox="0 0 48 48" style="enable-background:new 0 0 48 48;" xml:space="preserve">
<style type="text/css">
	.st0{fill:#4BC8F4;}
	.st1{fill:#FFFFFF;}
</style>
<title>save_icon</title>
<g id="Layer_2">
	<g id="Layer_1-2">
		<path class="st0" d="M48,24c0,13.3-10.7,24-24,24S0,37.3,0,24S10.7,0,24,0S48,10.7,48,24"/>
		<path class="st1" d="M24.1,39.2c-8.3,0-15-6.7-15-15s6.7-15,15-15s15,6.7,15,15S32.4,39.2,24.1,39.2 M24.1,10.2
			c-7.7,0-13.9,6.2-13.9,13.9s6.2,13.9,13.9,13.9S38,31.9,38,24.2l0,0C38,16.5,31.8,10.3,24.1,10.2"/>
		<g>
			<path class="st1" d="M27.5,32.1c-2.2,0-4-1.8-4-4s1.8-4,4-4s4,1.8,4,4S29.7,32.1,27.5,32.1z M27.5,25.2c-1.6,0-3,1.3-3,3
				s1.3,3,3,3c1.6,0,3-1.3,3-3S29.2,25.2,27.5,25.2z"/>
			<path class="st1" d="M27.5,30.1c-0.1,0-0.3,0-0.3-0.1c-0.2-0.2-0.2-0.5,0-0.7l0.6-0.6h-1.8c-0.3,0-0.5-0.2-0.5-0.5
				c0-0.3,0.2-0.5,0.5-0.5h3c0.2,0,0.4,0.1,0.5,0.3c0.1,0.2,0,0.4-0.1,0.5L27.9,30C27.8,30.1,27.7,30.1,27.5,30.1L27.5,30.1z"/>
			<path class="st1" d="M29,28.6c-0.1,0-0.3,0-0.3-0.1L27.2,27c-0.2-0.2-0.2-0.5,0-0.7c0.2-0.2,0.5-0.2,0.7,0l1.5,1.5
				c0.2,0.2,0.2,0.5,0,0.7C29.3,28.6,29.2,28.6,29,28.6z"/>
			<path class="st1" d="M22.1,30.1h-4.9c-0.3,0-0.5-0.2-0.5-0.5v-8.9c0-0.4,0.2-0.8,0.5-1.2l2.8-2.8c0.3-0.3,0.7-0.5,1.2-0.5h6.2
				c0.7,0,1.2,0.6,1.2,1.2v5.2c0,0.3-0.2,0.5-0.5,0.5s-0.5-0.2-0.5-0.5v-5.2c0-0.1-0.1-0.2-0.2-0.2h-6.2c-0.2,0-0.3,0.1-0.5,0.2
				l-2.8,2.8c-0.1,0.1-0.2,0.3-0.2,0.5v8.4h4.5c0.3,0,0.5,0.2,0.5,0.5S22.4,30.1,22.1,30.1L22.1,30.1z"/>
			<path class="st1" d="M20.9,21.7h-2.2c-0.3,0-0.5-0.2-0.5-0.5s0.2-0.5,0.5-0.5h2.2c0.1,0,0.2-0.1,0.2-0.2v-2.2
				c0-0.3,0.2-0.5,0.5-0.5c0.3,0,0.5,0.2,0.5,0.5v2.2C22.1,21.1,21.6,21.7,20.9,21.7z"/>
		</g>
	</g>
</g>
</svg>
