<svg xmlns="http://www.w3.org/2000/svg" viewBox="0 0 48 48"><defs><style>.cls-1{fill:#4bc8f4;}.cls-2{fill:#fff;}</style></defs><title>save_icon</title><g id="Layer_2" data-name="Layer 2"><g id="Layer_1-2" data-name="Layer 1"><path class="cls-1" d="M48,24A24,24,0,1,1,24,0,24,24,0,0,1,48,24"/><path class="cls-2" d="M24,39A15,15,0,1,1,39,24,15,15,0,0,1,24,39m0-28.92A13.92,13.92,0,1,0,37.92,24,13.93,13.93,0,0,0,24,10.08"/><path class="cls-2" d="M21.67,32.16h0a.54.54,0,0,1-.43-.25l-5-7.61a.54.54,0,0,1,.91-.59l4.53,7,9.15-12a.54.54,0,0,1,.86.66L22.1,31.94a.54.54,0,0,1-.43.21"/></g></g></svg>