<svg xmlns="http://www.w3.org/2000/svg" viewBox="0 0 69.96 60"><defs><style>.cls-1{fill:#fff;}</style></defs><title>Asset 1</title><g id="Layer_2" data-name="Layer 2"><g id="Layer_1-2" data-name="Layer 1"><path class="cls-1" d="M65.76,25.09a5.06,5.06,0,0,0-.87-.06H15.53l1.08-.5a10,10,0,0,0,2.83-2L33.28,8.68A5.18,5.18,0,0,0,34,2,5,5,0,0,0,27,1a4.79,4.79,0,0,0-.51.43l-25,25a5,5,0,0,0,0,7.08h0l25,25a5,5,0,0,0,7.08,0A4.89,4.89,0,0,0,34,58a5.18,5.18,0,0,0-.73-6.63L19.46,37.54A10,10,0,0,0,17,35.71L15.46,35H64.61a5.18,5.18,0,0,0,5.28-4.21,5,5,0,0,0-4.14-5.74"/></g></g></svg>