<svg xmlns="http://www.w3.org/2000/svg" viewBox="0 0 85.43 87.44"><defs><style>.cls-1{fill:#fff;}</style></defs><title>Asset 1</title><g id="Layer_2" data-name="Layer 2"><g id="Layer_1-2" data-name="Layer 1"><path class="cls-1" d="M38.88,61.05a2.58,2.58,0,0,0,3.65,0l9.22-9.22a2.58,2.58,0,0,0-3.65-3.65L40.7,55.58l-3.37-3.37a2.58,2.58,0,1,0-3.65,3.65Z"/><path class="cls-1" d="M42.72,75.12a20.5,20.5,0,1,0-20.5-20.5,20.52,20.52,0,0,0,20.5,20.5m0-35.83A15.33,15.33,0,1,1,27.38,54.62,15.35,15.35,0,0,1,42.72,39.29"/><path class="cls-1" d="M77.08,5.5H72.37V2.58a2.58,2.58,0,1,0-5.16,0V5.5H62.14V2.58a2.58,2.58,0,0,0-5.16,0V5.5H28.46V2.58a2.58,2.58,0,0,0-5.16,0V5.5H18.22V2.58a2.58,2.58,0,0,0-5.16,0V5.5H8.35A8.36,8.36,0,0,0,0,13.85V79.09a8.36,8.36,0,0,0,8.35,8.35H77.08a8.36,8.36,0,0,0,8.35-8.35V13.85A8.36,8.36,0,0,0,77.08,5.5m3.19,73.59a3.19,3.19,0,0,1-3.19,3.19H8.35a3.19,3.19,0,0,1-3.19-3.19V27h75.1ZM5.16,13.85a3.19,3.19,0,0,1,3.19-3.19h4.71v2.91a2.58,2.58,0,1,0,5.16,0V10.66H23.3v2.91a2.58,2.58,0,1,0,5.16,0V10.66H57v2.91a2.58,2.58,0,1,0,5.16,0V10.66h5.07v2.91a2.58,2.58,0,1,0,5.16,0V10.66h4.71a3.19,3.19,0,0,1,3.19,3.19v8H5.16Z"/></g></g></svg>