<svg xmlns="http://www.w3.org/2000/svg" viewBox="0 0 85.43 87.44"><defs><style>.cls-1{fill:#fff;}.cls-2{fill:none;stroke:#fff;stroke-miterlimit:10;}</style></defs><title>Asset 1</title><g id="Layer_2" data-name="Layer 2"><g id="Layer_1-2" data-name="Layer 1"><path class="cls-1" d="M77.08,5.5H72.37V2.58a2.58,2.58,0,1,0-5.16,0V5.5H62.14V2.58a2.58,2.58,0,0,0-5.16,0V5.5H28.46V2.58a2.58,2.58,0,0,0-5.16,0V5.5H18.22V2.58a2.58,2.58,0,0,0-5.16,0V5.5H8.35A8.36,8.36,0,0,0,0,13.85V79.09a8.36,8.36,0,0,0,8.35,8.35H77.08a8.36,8.36,0,0,0,8.35-8.35V13.85A8.36,8.36,0,0,0,77.08,5.5m3.19,73.59a3.19,3.19,0,0,1-3.19,3.19H8.35a3.19,3.19,0,0,1-3.19-3.19V27h75.1ZM5.16,13.85a3.19,3.19,0,0,1,3.19-3.19h4.71v2.91a2.58,2.58,0,1,0,5.16,0V10.66H23.3v2.91a2.58,2.58,0,1,0,5.16,0V10.66H57v2.91a2.58,2.58,0,1,0,5.16,0V10.66h5.07v2.91a2.58,2.58,0,1,0,5.16,0V10.66h4.71a3.19,3.19,0,0,1,3.19,3.19v8H5.16Z"/><path class="cls-1" d="M66.76,45.68a1.48,1.48,0,0,0-2.05.39l-3,4.42a19.55,19.55,0,1,0-5.29,18,1.48,1.48,0,0,0-2.09-2.09,16.61,16.61,0,1,1,4.59-14.72l-5.24-3.57A1.48,1.48,0,0,0,52,50.51l7.82,5.33h0a1.45,1.45,0,0,0,.39.19h0l.07,0a1.46,1.46,0,0,0,1.58-.6l5.27-7.72a1.48,1.48,0,0,0-.39-2.05"/><path class="cls-2" d="M66.76,45.68a1.48,1.48,0,0,0-2.05.39l-3,4.42a19.55,19.55,0,1,0-5.29,18,1.48,1.48,0,0,0-2.09-2.09,16.61,16.61,0,1,1,4.59-14.72l-5.24-3.57A1.48,1.48,0,0,0,52,50.51l7.82,5.33h0a1.45,1.45,0,0,0,.39.19h0l.07,0a1.46,1.46,0,0,0,1.58-.6l5.27-7.72A1.48,1.48,0,0,0,66.76,45.68Z"/></g></g></svg>