<svg xmlns="http://www.w3.org/2000/svg" viewBox="0 0 78.77 70"><defs><style>.cls-1{fill:#fff;}</style></defs><title>Asset 3</title><g id="Layer_2" data-name="Layer 2"><g id="Layer_1-2" data-name="Layer 1"><path class="cls-1" d="M78.77,37.69A16.75,16.75,0,0,0,75.35,27.5a17,17,0,0,0-8.17-5.85,23.7,23.7,0,0,0-5-14.71C58.39,2.4,53,0,46.46,0c-4.87,0-8.77,1.2-11.92,3.66a21.89,21.89,0,0,0-5.88,7.65A11.53,11.53,0,0,0,12.13,21.48a16.89,16.89,0,0,0,4.73,33.1h2.68l-3.94,6.83a5.73,5.73,0,0,0,5,8.59H58.21a5.73,5.73,0,0,0,5-8.59l-3.94-6.83h2.67A16.9,16.9,0,0,0,78.77,37.69M59.18,64.83a1.1,1.1,0,0,1-1,.56H20.56a1.11,1.11,0,0,1-1-1.67L38.42,31.13a1.12,1.12,0,0,1,1.93,0L59.18,63.72a1.09,1.09,0,0,1,0,1.11m-14.83-36a5.73,5.73,0,0,0-9.93,0L22.2,50H16.86A12.28,12.28,0,0,1,13.81,25.8a3.87,3.87,0,0,0,2.94-3.88c0-.07,0-.14,0-.21A6.92,6.92,0,0,1,27,15.67,3.91,3.91,0,0,0,32.49,14a17.9,17.9,0,0,1,4.89-6.68c2.31-1.81,5.28-2.68,9.08-2.68,5.08,0,9.27,1.82,12.11,5.26a19.24,19.24,0,0,1,4,12.28,3.91,3.91,0,0,0,2.82,3.77,12.34,12.34,0,0,1,6.29,4.36A12.28,12.28,0,0,1,61.91,50H56.57Z"/><path class="cls-1" d="M43.51,47.07l-7.75,7.75-2-2A2.31,2.31,0,1,0,30.46,56L34,59.59a2.47,2.47,0,0,0,3.49,0l9.27-9.27a2.31,2.31,0,1,0-3.26-3.26"/></g></g></svg>