<svg xmlns="http://www.w3.org/2000/svg" viewBox="0 0 45.12 70"><defs><style>.cls-1{fill:#fff;}</style></defs><title>Asset 4</title><g id="Layer_2" data-name="Layer 2"><g id="Layer_1-2" data-name="Layer 1"><path class="cls-1" d="M43.07,65.9H39.91c2-9.07,1.59-15.78-1.09-20.46s-7-6.3-10.14-7.57S24.61,36.09,24.61,35s.92-1.62,4.07-2.88,7.52-3,10.14-7.57a17.31,17.31,0,0,0,1.89-5.27c.78-4.06.51-9.09-.8-15.19h3.16a2.05,2.05,0,1,0,0-4.1h-41a2.05,2.05,0,0,0,0,4.1H5.21a41.76,41.76,0,0,0-1,13.73A18.15,18.15,0,0,0,6.3,24.56c2.62,4.58,7,6.3,10.14,7.57s4.07,1.78,4.07,2.88-.92,1.62-4.07,2.88-7.52,3-10.14,7.57-3,11.39-1.09,20.46H2.05a2.05,2.05,0,0,0,0,4.1h41a2.05,2.05,0,1,0,0-4.1M22.56,56.37A28,28,0,0,0,26.81,60c2.41,1.82,4.72,3.56,5.61,5.85H12.69c.89-2.29,3.2-4,5.61-5.85a27.92,27.92,0,0,0,4.26-3.68M35.71,4.1a42.52,42.52,0,0,1,1.27,12A18.66,18.66,0,0,0,30,14.49a20.11,20.11,0,0,0-8.47,2.3,16.18,16.18,0,0,1-6.5,1.8,16.08,16.08,0,0,1-6.5-1.8l-.4-.22A41.29,41.29,0,0,1,9.41,4.1ZM18,28.31c-2.9-1.15-6.19-2.46-8.1-5.79-.17-.29-.32-.6-.46-.91a17.43,17.43,0,0,0,5.68,1.09,20.13,20.13,0,0,0,8.47-2.3,16.17,16.17,0,0,1,6.5-1.8,15.61,15.61,0,0,1,6.2,1.65,11.56,11.56,0,0,1-1,2.28c-1.91,3.33-5.2,4.64-8.1,5.79a17.29,17.29,0,0,0-4.6,2.38A17.3,17.3,0,0,0,18,28.31M9.86,47.48c1.91-3.33,5.2-4.64,8.1-5.79a17.3,17.3,0,0,0,4.6-2.38,17.29,17.29,0,0,0,4.6,2.38c2.9,1.15,6.18,2.46,8.1,5.79,2,3.56,2.32,9.13.84,16.57-1.39-3.18-4.32-5.4-6.82-7.28s-4.68-3.53-4.68-5.36a2.05,2.05,0,0,0-4.1,0c0,1.83-2.17,3.47-4.68,5.36S10.41,60.87,9,64.05c-1.48-7.44-1.2-13,.84-16.57"/></g></g></svg>