<svg xmlns="http://www.w3.org/2000/svg" viewBox="0 0 600 280.38"><defs><style>.cls-1{fill:#4bc9f4;}.cls-2{fill:#050708;}.cls-3{fill:#4ecaf4;}.cls-4{fill:#fff;}</style></defs><title>Asset 1</title><g id="Layer_2" data-name="Layer 2"><g id="Layer_1-2" data-name="Layer 1"><path class="cls-2" d="M374.09,98.07a20.55,20.55,0,1,1-20.51-20.51,20.58,20.58,0,0,1,20.51,20.51m0-35.66V78.8a28.21,28.21,0,1,0,7.64,19.27V62.41Zm-54,35.86a28.14,28.14,0,0,0-56.27-.21v27.73h7.63V98.27a20.51,20.51,0,1,1,41,0v27.52h7.62Zm-89.77,20.41a20.56,20.56,0,1,1,20.52-20.61,20.67,20.67,0,0,1-20.52,20.61m28.14-20.61a28.13,28.13,0,1,0-7.63,19.38v8.35h7.63ZM196.74,125.8V90a20.31,20.31,0,0,0-36.8-11.85,20.23,20.23,0,0,0-36.68,11.75V125.8h7.62V90a12.63,12.63,0,1,1,25.26-.1V125.8h7.63V90a12.68,12.68,0,0,1,25.35-.1V125.8ZM69.35,98.07A20.61,20.61,0,0,1,107,86.52L78.43,115.07a20.48,20.48,0,0,1-9.07-17M116.25,88a28.17,28.17,0,1,0,1.65,13.91h-7.73A20.66,20.66,0,0,1,90,118.68a25.51,25.51,0,0,1-4-.41ZM48.75,98.07A20.56,20.56,0,1,1,28.24,77.56,20.58,20.58,0,0,1,48.75,98.07m0-35.66V78.8a28.22,28.22,0,1,0,7.62,19.27V62.41Z"/><path class="cls-1" d="M551.46,98.07a20.61,20.61,0,0,1,37.61-11.54l-28.55,28.55a20.49,20.49,0,0,1-9.07-17M598.35,88A28.17,28.17,0,1,0,600,101.88h-7.73a20.66,20.66,0,0,1-20.2,16.8,25.51,25.51,0,0,1-4-.41Zm-116,10.09a28.14,28.14,0,0,0,56.27.21V70.55H531V98.07a20.51,20.51,0,1,1-41,0V70.55H482.3Zm-33.49,0A28.19,28.19,0,0,0,477,126.31v-7.63a20.65,20.65,0,0,1-20.52-20.61V62.51h-7.62Zm-33.6-20.51A20.56,20.56,0,1,1,394.7,98.07a20.53,20.53,0,0,1,20.51-20.51M387.08,98.07A28.13,28.13,0,1,0,394.7,78.8V62.41h-7.62Z"/><path class="cls-2" d="M369.1,14.17A20.47,20.47,0,0,0,358,10.86c-11.82,0-21.4,10.09-21.4,22.52,0,.79,0,1.56.1,2.33H334a10.5,10.5,0,0,0,0,21h47.45V1.44A22.07,22.07,0,0,0,369.1,14.17"/><path class="cls-1" d="M432.59,35.72h-1.2a12.58,12.58,0,0,0-12.74-12.42,12.91,12.91,0,0,0-3.25.42c0-.4.05-.8.05-1.2C415.46,10.08,405.12,0,392.35,0a23.14,23.14,0,0,0-5.2.6V56.68h45.45a10.49,10.49,0,1,0,0-21"/><path class="cls-3" d="M485,247.88a32.5,32.5,0,0,1-32.5,32.5h-304a32.5,32.5,0,0,1,0-65h304a32.5,32.5,0,0,1,32.5,32.5"/><path class="cls-4" d="M170.11,251.07a8.6,8.6,0,0,1-2.74,5.72,9,9,0,0,1-6.13,2,8.24,8.24,0,0,1-6.64-3,12,12,0,0,1-2.5-7.95v-2.25a13.31,13.31,0,0,1,1.16-5.73,8.7,8.7,0,0,1,3.3-3.8,9.19,9.19,0,0,1,4.95-1.32,8.45,8.45,0,0,1,6,2.08,8.7,8.7,0,0,1,2.62,5.76H167a6.72,6.72,0,0,0-1.74-4.06,5.27,5.27,0,0,0-3.75-1.26,5.51,5.51,0,0,0-4.63,2.19,10,10,0,0,0-1.68,6.22V248A10.31,10.31,0,0,0,156.8,254a5.14,5.14,0,0,0,4.45,2.25,5.93,5.93,0,0,0,3.94-1.16,6.46,6.46,0,0,0,1.82-4.05Z"/><path class="cls-4" d="M190.77,235.11V251a7.46,7.46,0,0,1-2.08,5.41,8.38,8.38,0,0,1-5.6,2.36l-.82,0a8.75,8.75,0,0,1-6.12-2.07,7.41,7.41,0,0,1-2.31-5.7V235.11h3.05v15.83a4.88,4.88,0,0,0,5.38,5.35,5.4,5.4,0,0,0,4-1.4,5.34,5.34,0,0,0,1.39-3.93V235.11Z"/><path class="cls-4" d="M202.53,248.07a14.5,14.5,0,0,1-5.77-2.8,5.35,5.35,0,0,1-1.81-4.1,5.65,5.65,0,0,1,2.21-4.57,8.77,8.77,0,0,1,5.74-1.81,9.58,9.58,0,0,1,4.29.93,7.06,7.06,0,0,1,2.92,2.57,6.57,6.57,0,0,1,1,3.58H208a4.27,4.27,0,0,0-1.35-3.34,5.49,5.49,0,0,0-3.81-1.22,5.62,5.62,0,0,0-3.56,1,3.35,3.35,0,0,0-1.28,2.79,3,3,0,0,0,1.21,2.42,11.88,11.88,0,0,0,4.13,1.81,19.12,19.12,0,0,1,4.56,1.81,6.92,6.92,0,0,1,2.44,2.3,5.88,5.88,0,0,1,.79,3.1A5.46,5.46,0,0,1,209,257.1a9.45,9.45,0,0,1-5.92,1.71,11,11,0,0,1-4.5-.92,7.56,7.56,0,0,1-3.22-2.53,6.17,6.17,0,0,1-1.13-3.64h3.1a4,4,0,0,0,1.57,3.35,6.59,6.59,0,0,0,4.18,1.23,6.06,6.06,0,0,0,3.74-1,3.23,3.23,0,0,0,1.3-2.71,3.18,3.18,0,0,0-1.2-2.66A13.9,13.9,0,0,0,202.53,248.07Z"/><path class="cls-4" d="M231.3,237.63h-7.51v20.86h-3.07V237.63h-7.5v-2.52H231.3Z"/><path class="cls-4" d="M252.32,247.55a14.47,14.47,0,0,1-1.16,6,8.76,8.76,0,0,1-3.28,3.91,9,9,0,0,1-13.16-3.88,13.88,13.88,0,0,1-1.21-5.82v-1.69a14.28,14.28,0,0,1,1.17-6,8.67,8.67,0,0,1,8.22-5.33,9.07,9.07,0,0,1,5,1.36,8.74,8.74,0,0,1,3.3,3.93,14.54,14.54,0,0,1,1.16,6ZM249.25,246a10.48,10.48,0,0,0-1.67-6.38,5.51,5.51,0,0,0-4.67-2.22,5.45,5.45,0,0,0-4.6,2.22,10.27,10.27,0,0,0-1.73,6.17v1.72a10.49,10.49,0,0,0,1.69,6.33,5.94,5.94,0,0,0,9.29.13,10.44,10.44,0,0,0,1.69-6.24Z"/><path class="cls-4" d="M260.93,235.11l7.64,19.07,7.64-19.07h4v23.38h-3.08v-9.1l.29-9.83-7.67,18.93h-2.36l-7.66-18.88.31,9.78v9.1h-3.08V235.11Z"/><path class="cls-4" d="M298.87,247.68H288.74V256H300.5v2.52H285.65V235.11h14.69v2.52H288.74v7.53h10.13Z"/><path class="cls-4" d="M312.92,249h-5.49v9.46h-3.1V235.11h7.74a9.16,9.16,0,0,1,6.08,1.8,6.47,6.47,0,0,1,2.13,5.23,6.29,6.29,0,0,1-1.18,3.81,7,7,0,0,1-3.28,2.42l5.49,9.92v.19H318Zm-5.49-2.52h4.74a5.34,5.34,0,0,0,3.65-1.19,4,4,0,0,0,1.36-3.19,4.24,4.24,0,0,0-1.29-3.33,5.47,5.47,0,0,0-3.73-1.17h-4.72Z"/><path class="cls-4" d="M335.81,249.34v9.15h-3.08V235.11h8.62a8.66,8.66,0,0,1,6,2,6.64,6.64,0,0,1,2.18,5.19,6.55,6.55,0,0,1-2.13,5.24,9,9,0,0,1-6.09,1.84Zm0-2.52h5.54a5.54,5.54,0,0,0,3.79-1.17,4.26,4.26,0,0,0,1.32-3.37,4.41,4.41,0,0,0-1.32-3.35,5.19,5.19,0,0,0-3.61-1.3h-5.72Z"/><path class="cls-4" d="M371.45,247.55a14.47,14.47,0,0,1-1.16,6,8.76,8.76,0,0,1-3.28,3.91,9,9,0,0,1-13.16-3.88,13.88,13.88,0,0,1-1.21-5.82v-1.69a14.28,14.28,0,0,1,1.17-6,8.67,8.67,0,0,1,8.22-5.33,9.07,9.07,0,0,1,5,1.36,8.74,8.74,0,0,1,3.3,3.93,14.54,14.54,0,0,1,1.16,6ZM368.39,246a10.48,10.48,0,0,0-1.67-6.38,5.51,5.51,0,0,0-4.67-2.22,5.45,5.45,0,0,0-4.6,2.22,10.27,10.27,0,0,0-1.73,6.17v1.72a10.49,10.49,0,0,0,1.69,6.33,5.94,5.94,0,0,0,9.29.13,10.44,10.44,0,0,0,1.69-6.24Z"/><path class="cls-4" d="M384.65,249h-5.49v9.46h-3.1V235.11h7.74a9.16,9.16,0,0,1,6.08,1.8,6.47,6.47,0,0,1,2.13,5.23,6.29,6.29,0,0,1-1.18,3.81,7,7,0,0,1-3.28,2.42L393,258.3v.19h-3.31Zm-5.49-2.52h4.74a5.34,5.34,0,0,0,3.65-1.19,4,4,0,0,0,1.36-3.19,4.24,4.24,0,0,0-1.29-3.33,5.47,5.47,0,0,0-3.73-1.17h-4.72Z"/><path class="cls-4" d="M411.23,237.63h-7.51v20.86h-3.07V237.63h-7.5v-2.52h18.08Z"/><path class="cls-4" d="M426.36,252.37h-9.79l-2.2,6.12h-3.18l8.93-23.38h2.7l8.94,23.38h-3.16Zm-8.86-2.52h7.95l-4-10.93Z"/><path class="cls-4" d="M438,256h11.08v2.52H434.9V235.11H438Z"/></g></g></svg>