<svg xmlns="http://www.w3.org/2000/svg" viewBox="0 0 132.19 150"><defs><style>.cls-1{fill:#e6e6e6;}.cls-2{fill:#ccc;}.cls-3{fill:#e3e0e4;}.cls-4{fill:#9ec8fc;}.cls-5{fill:#62a4fb;}.cls-6{fill:#f9f8f9;}</style></defs><title>doc</title><g id="Layer_2" data-name="Layer 2"><g id="Layer_1-2" data-name="Layer 1"><path class="cls-1" d="M125.65,136.61A13.41,13.41,0,0,1,112.23,150H20a13.41,13.41,0,0,1-13.42-13.4V13.39A13.41,13.41,0,0,1,20,0H77.4a10.07,10.07,0,0,1,7.12,3l38.18,38.18a10,10,0,0,1,2.94,7.09Z"/><path class="cls-2" d="M29,150H20A13.41,13.41,0,0,1,6.55,136.6V13.4A13.41,13.41,0,0,1,20,0H29A13.41,13.41,0,0,0,15.6,13.4V136.6A13.41,13.41,0,0,0,29,150"/><path class="cls-3" d="M125.65,48.23v4.9h-35A18.15,18.15,0,0,1,72.52,35V0H77.4a10.08,10.08,0,0,1,7.12,2.95l38.18,38.18a10,10,0,0,1,2.94,7.1"/><path class="cls-4" d="M124.74,44.08H90.65A9.07,9.07,0,0,1,81.58,35V.91a10,10,0,0,1,2.95,2l38.18,38.18a10,10,0,0,1,2,2.94"/><path class="cls-4" d="M120.12,130.08h-108A12.07,12.07,0,0,1,0,118V73.94A12.07,12.07,0,0,1,12.07,61.87h108a12.07,12.07,0,0,1,12.07,12.07V118a12.07,12.07,0,0,1-12.07,12.07"/><path class="cls-5" d="M19.62,130.08H12.07A12.07,12.07,0,0,1,0,118V73.94A12.07,12.07,0,0,1,12.07,61.87h7.55A12.07,12.07,0,0,0,7.55,73.94V118a12.07,12.07,0,0,0,12.07,12.07"/><path class="cls-6" d="M14.42,114.93a2.27,2.27,0,0,1-2.26-2.25c0-.12,0-12.15,0-16.74,0-3.81,0-16.65,0-16.65A2.27,2.27,0,0,1,14.35,77h9.46c9.42,0,15.75,7.62,15.75,19a21.54,21.54,0,0,1-4,13.08,14.44,14.44,0,0,1-11.4,5.8c-2.68,0-9.41.07-9.7.07Zm2.2-33.39c0,3.87,0,11.59,0,14.39,0,3.36,0,10.72,0,14.46,2.28,0,5.68,0,7.37-.06,6.47-.11,11-6,11-14.36,0-7-2.95-14.43-11.22-14.43Z"/><path class="cls-6" d="M107,115.44a19.47,19.47,0,1,1,10.88-35.6,2.26,2.26,0,1,1-2.53,3.75A14.94,14.94,0,1,0,107,110.91a11.55,11.55,0,0,0,7.94-2.84,11.87,11.87,0,0,0,1.17-1.2,2.26,2.26,0,0,1,3.47,2.91A15.8,15.8,0,0,1,107,115.44"/><path class="cls-6" d="M63.55,115.44A19.47,19.47,0,1,1,83,96a19.49,19.49,0,0,1-19.46,19.47m0-34.41A14.94,14.94,0,1,0,78.48,96,15,15,0,0,0,63.55,81"/></g></g></svg>