<svg xmlns="http://www.w3.org/2000/svg" viewBox="0 0 195.39 150"><defs><style>.cls-1{fill:#4bc9f4;}.cls-2{fill:#07beef;}</style></defs><title>folder</title><g id="Layer_2" data-name="Layer 2"><g id="Layer_1-2" data-name="Layer 1"><path class="cls-1" d="M185,150H10.42A10.42,10.42,0,0,1,0,139.58V10.42A10.42,10.42,0,0,1,10.42,0H59.7a10.42,10.42,0,0,1,9.08,5.31l5.75,10.22a10.42,10.42,0,0,0,9.08,5.31H185a10.42,10.42,0,0,1,10.42,10.42V139.58A10.42,10.42,0,0,1,185,150"/><path class="cls-2" d="M10.42,150H185a10.42,10.42,0,0,0,10.42-10.42V31.26A10.42,10.42,0,0,0,185,20.84H109.64a10.42,10.42,0,0,0-9.08,5.31L94.81,36.37a10.42,10.42,0,0,1-9.08,5.31H10.42A10.42,10.42,0,0,0,0,52.1v87.48A10.42,10.42,0,0,0,10.42,150"/><path class="cls-1" d="M189.24,21.78a10.35,10.35,0,0,1,.94,4.27V134.37a10.42,10.42,0,0,1-10.42,10.42H5.21a10.35,10.35,0,0,1-4.27-.94A10.41,10.41,0,0,0,10.42,150H185a10.42,10.42,0,0,0,10.42-10.42V31.26a10.41,10.41,0,0,0-6.15-9.48"/></g></g></svg>