<svg xmlns="http://www.w3.org/2000/svg" viewBox="0 0 130.88 148.51"><defs><style>.cls-1{fill:#f9f8f9;}.cls-2{fill:#e3e0e4;}.cls-3{fill:#faf063;}.cls-4{fill:#29abe2;}.cls-5{fill:#0071bc;}</style></defs><title>gif</title><g id="Layer_2" data-name="Layer 2"><g id="Layer_1-2" data-name="Layer 1"><path class="cls-1" d="M124.39,135.25a13.27,13.27,0,0,1-13.29,13.26H19.77A13.27,13.27,0,0,1,6.48,135.25v-122A13.27,13.27,0,0,1,19.77,0H76.63a10,10,0,0,1,7.05,2.92l37.8,37.8a9.94,9.94,0,0,1,2.91,7Z"/><path class="cls-2" d="M28.73,148.51h-9A13.27,13.27,0,0,1,6.48,135.24v-122A13.27,13.27,0,0,1,19.77,0h9A13.27,13.27,0,0,0,15.44,13.26v122a13.27,13.27,0,0,0,13.29,13.26"/><path class="cls-2" d="M124.39,47.75V52.6H89.75A18,18,0,0,1,71.8,34.65V0h4.83a10,10,0,0,1,7.05,2.92l37.8,37.8a9.93,9.93,0,0,1,2.91,7"/><path class="cls-3" d="M123.5,43.64H89.75a9,9,0,0,1-9-9V.9a9.89,9.89,0,0,1,2.92,2l37.8,37.8a9.87,9.87,0,0,1,2,2.91"/><path class="cls-4" d="M118.92,128.78H12a12,12,0,0,1-12-12V73.21a12,12,0,0,1,12-12h107a12,12,0,0,1,12,12v43.62a12,12,0,0,1-12,12"/><path class="cls-5" d="M19.42,128.78H12a12,12,0,0,1-12-12V73.21a12,12,0,0,1,12-12h7.47a12,12,0,0,0-12,12v43.62a12,12,0,0,0,12,12"/><path class="cls-1" d="M74.3,75.75A2.24,2.24,0,0,0,72.06,78v34.06a2.24,2.24,0,0,0,4.48,0V78a2.24,2.24,0,0,0-2.24-2.24"/><path class="cls-1" d="M100,80.35a2.24,2.24,0,1,0,0-4.48H86.25A2.24,2.24,0,0,0,84,78.11v33.81a2.24,2.24,0,1,0,4.48,0v-15H98.87a2.24,2.24,0,0,0,0-4.48H88.5V80.35Z"/><path class="cls-1" d="M62.65,92.78H52.46a2.24,2.24,0,0,0,0,4.48h7.83c-.66,6.21-4.14,12.55-12.34,12.55a14.79,14.79,0,1,1,8.27-27.05A2.24,2.24,0,0,0,58.72,79a19.27,19.27,0,1,0-10.78,35.25,15.68,15.68,0,0,0,12.62-5.82A21.33,21.33,0,0,0,64.89,95a2.24,2.24,0,0,0-2.24-2.24"/></g></g></svg>