<svg xmlns="http://www.w3.org/2000/svg" viewBox="0 0 55 55"><defs><style>.cls-1{fill:#fff;}</style></defs><title>Asset 8</title><g id="Layer_2" data-name="Layer 2"><g id="Layer_1-2" data-name="Layer 1"><path class="cls-1" d="M53.39,51.78H46.3V36a3.23,3.23,0,0,0-3.22-3.22h-2.4A14,14,0,0,0,37,25.87a11.52,11.52,0,0,0-3.89-2.55,16,16,0,0,0,5.15-11.54C38.26,8,37.2,5,35.11,2.89A10.47,10.47,0,0,0,27.5,0a10.47,10.47,0,0,0-7.61,2.89C17.8,5,16.74,8,16.74,11.78a16,16,0,0,0,5.15,11.54A11.52,11.52,0,0,0,18,25.87a14,14,0,0,0-3.68,6.9h-2.4A3.23,3.23,0,0,0,8.7,36V51.78H1.61a1.61,1.61,0,0,0,0,3.22H53.39a1.61,1.61,0,1,0,0-3.22M27.5,3.22c2.37,0,6.08.79,7.2,5.46a9.4,9.4,0,0,1-3.31-1,3.65,3.65,0,0,0-2.53-.53A4.84,4.84,0,0,0,26.92,8.2c-1,.8-2.5,2-6.89,2.21.55-6.22,4.85-7.19,7.48-7.19M20.13,13.63c5.47-.29,7.52-1.9,8.79-2.9.18-.14.42-.33.56-.42l.48.23A12.73,12.73,0,0,0,35,12,13.19,13.19,0,0,1,32.65,19c-1.49,2.12-3.36,3.33-5.15,3.33S23.84,21.15,22.35,19a13.55,13.55,0,0,1-2.22-5.4m6.51,12h1.72c4.47,0,7.73,2.61,9,7.09H17.64c1.27-4.47,4.53-7.09,9-7.09M11.92,36H43.08V51.78H11.92Z"/><path class="cls-1" d="M27.5,41.36A1.61,1.61,0,1,1,25.89,43a1.61,1.61,0,0,1,1.61-1.61"/></g></g></svg>