<svg xmlns="http://www.w3.org/2000/svg" viewBox="0 0 55 41.9"><defs><style>.cls-1{fill:#fff;}</style></defs><title>Asset 5</title><g id="Layer_2" data-name="Layer 2"><g id="Layer_1-2" data-name="Layer 1"><path class="cls-1" d="M53.39,32.23H51.78V1.61A1.61,1.61,0,0,0,50.17,0H4.83A1.61,1.61,0,0,0,3.22,1.61V32.23H1.61A1.61,1.61,0,0,0,0,33.84,8.07,8.07,0,0,0,8.06,41.9H46.94A8.07,8.07,0,0,0,55,33.84a1.61,1.61,0,0,0-1.61-1.61M6.45,3.22H48.55v29H6.45ZM32.33,38.67H22.67V35.45h9.67ZM3.5,35.45H19.44v3.22H8.06A4.84,4.84,0,0,1,3.5,35.45m43.44,3.22H35.56V35.45H51.5a4.84,4.84,0,0,1-4.56,3.22"/><path class="cls-1" d="M37.17,12.89h6.55a1.61,1.61,0,0,0,0-3.22H37.17a1.61,1.61,0,0,0,0,3.22"/><path class="cls-1" d="M30.72,9.67a1.61,1.61,0,1,1-1.61,1.61,1.61,1.61,0,0,1,1.61-1.61"/><path class="cls-1" d="M30.72,19.34h13a1.61,1.61,0,0,0,0-3.22h-13a1.61,1.61,0,0,0,0,3.22"/><path class="cls-1" d="M30.72,25.78h13a1.61,1.61,0,0,0,0-3.22h-13a1.61,1.61,0,0,0,0,3.22"/><path class="cls-1" d="M25.89,17.72a8.07,8.07,0,0,0-8.06-8.06,8.15,8.15,0,0,0-8.16,8.06,8.15,8.15,0,0,0,8.16,8.06,8.07,8.07,0,0,0,8.06-8.06m-3.5-1.61H19.44V13.17a4.86,4.86,0,0,1,2.95,2.95m-4.56,6.44a5,5,0,0,1-4.94-4.83,4.92,4.92,0,0,1,3.33-4.56v4.56a1.61,1.61,0,0,0,1.61,1.61h4.56a4.84,4.84,0,0,1-4.56,3.22"/></g></g></svg>