<svg xmlns="http://www.w3.org/2000/svg" viewBox="0 0 55 55"><defs><style>.cls-1{fill:#939292;}</style></defs><title>Asset 11</title><g id="Layer_2" data-name="Layer 2"><g id="Layer_1-2" data-name="Layer 1"><path class="cls-1" d="M53.39,45.33H51.78V17.94a4.84,4.84,0,0,0-4.83-4.83H35.17A24.71,24.71,0,0,0,28.88.73L28.77.61a1.61,1.61,0,0,0-2.53,0l-.11.11a24.5,24.5,0,0,0-6.3,12.38H8.06a4.84,4.84,0,0,0-4.83,4.83V45.33H1.61A1.61,1.61,0,0,0,0,46.94,8.07,8.07,0,0,0,8.06,55H46.94A8.07,8.07,0,0,0,55,46.94a1.61,1.61,0,0,0-1.61-1.61m-6.44-29a1.61,1.61,0,0,1,1.61,1.61V45.33H45.33a6.35,6.35,0,0,0-2-4.58,6.57,6.57,0,0,0-4.59-1.87,6.41,6.41,0,0,0-.85.06,6.44,6.44,0,0,0-5.59-3.28V31.1c.09-.24.21-.54.35-.87L34.42,32a1.61,1.61,0,0,0,2.28-2.28L34,27a29.12,29.12,0,0,0,1.59-9.57c0-.35,0-.71,0-1.06ZM13,45.33a3.21,3.21,0,0,1,4.42-3,1.61,1.61,0,0,0,2.15-1.07,3.22,3.22,0,0,1,3.09-2.39,3.23,3.23,0,0,0,3.22-3.22V32.44h3.22v3.22a3.23,3.23,0,0,0,3.22,3.22,3.22,3.22,0,0,1,3.09,2.39,1.61,1.61,0,0,0,2.16,1.07,3.19,3.19,0,0,1,1.2-.24,3.32,3.32,0,0,1,3.33,3.22ZM25.38,29.22l-.18-.43c-.32-.76-.71-1.69-1.09-2.8h6.77c-.37,1.09-.76,2-1.07,2.75l-.2.47Zm7-11.83a25.9,25.9,0,0,1-.56,5.39H23.22a26.09,26.09,0,0,1-.56-5.39,20.54,20.54,0,0,1,.45-4.28h8.76a20.5,20.5,0,0,1,.45,4.28M27.49,4a21.75,21.75,0,0,1,3.42,5.83H24.08A21.45,21.45,0,0,1,27.49,4m-21,13.89a1.62,1.62,0,0,1,1.61-1.61H19.47c0,.35,0,.71,0,1.06A29.53,29.53,0,0,0,21,27L18.3,29.69A1.61,1.61,0,0,0,20.58,32l1.73-1.73c.14.33.26.63.35.87v4.56a6.44,6.44,0,0,0-5.59,3.28,6.37,6.37,0,0,0-.85-.06,6.45,6.45,0,0,0-6.45,6.45H6.45Zm40.5,33.84H8.06A4.84,4.84,0,0,1,3.5,48.55h48a4.84,4.84,0,0,1-4.56,3.23"/></g></g></svg>