<svg xmlns="http://www.w3.org/2000/svg" viewBox="0 0 55 49.63"><defs><style>.cls-1{fill:#fff;}</style></defs><title>Asset 4</title><g id="Layer_2" data-name="Layer 2"><g id="Layer_1-2" data-name="Layer 1"><path class="cls-1" d="M54,31.2V8.27A4.84,4.84,0,0,0,49.2,3.44H42.86V1.61a1.61,1.61,0,0,0-3.22,0V3.44H29.11V1.61a1.61,1.61,0,0,0-3.22,0V3.44H15.36V1.61a1.61,1.61,0,0,0-3.22,0V3.44H4.83A4.84,4.84,0,0,0,0,8.27V37.92a4.84,4.84,0,0,0,4.83,4.83h25A13.43,13.43,0,0,0,54,31.2M43.18,26.12a10.23,10.23,0,0,1,8.47,8.47H43.18ZM4.83,39.53a1.61,1.61,0,0,1-1.61-1.61V8.27A1.61,1.61,0,0,1,4.83,6.66h7.3V8.59a1.61,1.61,0,1,0,3.22,0V6.66H25.89V8.59a1.61,1.61,0,1,0,3.22,0V6.66H39.64V8.59a1.61,1.61,0,1,0,3.22,0V6.66H49.2a1.61,1.61,0,0,1,1.61,1.61V26.47A13.43,13.43,0,0,0,28.56,39.53Zm36.74,6.88A10.21,10.21,0,0,1,40,26.12V36.2a1.61,1.61,0,0,0,1.61,1.61H51.65a10.22,10.22,0,0,1-10.08,8.59"/><path class="cls-1" d="M11.17,17.19H8.59a1.61,1.61,0,0,0,0,3.22h2.58a1.61,1.61,0,0,0,0-3.22"/><path class="cls-1" d="M20.62,17.19H18a1.61,1.61,0,0,0,0,3.22h2.58a1.61,1.61,0,0,0,0-3.22"/><path class="cls-1" d="M20.62,24.06H18a1.61,1.61,0,0,0,0,3.22h2.58a1.61,1.61,0,0,0,0-3.22"/><path class="cls-1" d="M11.17,24.06H8.59a1.61,1.61,0,0,0,0,3.22h2.58a1.61,1.61,0,0,0,0-3.22"/><path class="cls-1" d="M11.17,30.94H8.59a1.61,1.61,0,0,0,0,3.22h2.58a1.61,1.61,0,0,0,0-3.22"/><path class="cls-1" d="M20.62,30.94H18a1.61,1.61,0,0,0,0,3.22h2.58a1.61,1.61,0,0,0,0-3.22"/></g></g></svg>