<svg xmlns="http://www.w3.org/2000/svg" viewBox="0 0 55 55"><defs><style>.cls-1{fill:#fff;}</style></defs><title>Asset 10</title><g id="Layer_2" data-name="Layer 2"><g id="Layer_1-2" data-name="Layer 1"><path class="cls-1" d="M27.5,11.11A16.39,16.39,0,1,0,43.89,27.5,16.41,16.41,0,0,0,27.5,11.11M23.11,39.92v-3a.55.55,0,0,1,.54-.54h7.66a.58.58,0,0,1,.58.54v3a13.17,13.17,0,0,1-8.78,0m12-1.68V36.89a3.83,3.83,0,0,0-3.8-3.77H23.65a3.81,3.81,0,0,0-3.77,3.77v1.35a13.17,13.17,0,1,1,15.23,0"/><path class="cls-1" d="M53.39,21.38H49a22.12,22.12,0,0,0-2-4.74l3.11-3.11a1.61,1.61,0,0,0,0-2.28L43.76,4.86a1.61,1.61,0,0,0-2.28,0L38.37,8a22.16,22.16,0,0,0-4.74-2V1.61A1.61,1.61,0,0,0,32,0H23a1.61,1.61,0,0,0-1.61,1.61V6a22.1,22.1,0,0,0-4.74,2L13.52,4.86a1.61,1.61,0,0,0-2.28,0L4.86,11.24a1.61,1.61,0,0,0,0,2.28L8,16.63a22.08,22.08,0,0,0-2,4.74H1.61A1.61,1.61,0,0,0,0,23v9a1.61,1.61,0,0,0,1.61,1.61H6a22.14,22.14,0,0,0,2,4.74L4.86,41.48a1.61,1.61,0,0,0,0,2.28l6.38,6.38a1.61,1.61,0,0,0,2.28,0L16.63,47a22.09,22.09,0,0,0,4.74,2v4.4A1.61,1.61,0,0,0,23,55h9a1.61,1.61,0,0,0,1.61-1.61V49a22.06,22.06,0,0,0,4.74-2l3.11,3.11a1.61,1.61,0,0,0,2.28,0l6.38-6.38a1.61,1.61,0,0,0,0-2.28L47,38.37a22.19,22.19,0,0,0,2-4.74h4.39A1.61,1.61,0,0,0,55,32V23a1.61,1.61,0,0,0-1.61-1.61m-1.61,9h-4a1.61,1.61,0,0,0-1.57,1.26,18.94,18.94,0,0,1-2.53,6.09,1.61,1.61,0,0,0,.22,2l2.86,2.86-4.1,4.1-2.86-2.86a1.61,1.61,0,0,0-2-.22,19,19,0,0,1-6.09,2.53,1.61,1.61,0,0,0-1.26,1.57v4H24.6v-4a1.61,1.61,0,0,0-1.26-1.57,19,19,0,0,1-6.09-2.53,1.61,1.61,0,0,0-2,.22l-2.86,2.86-4.1-4.1,2.86-2.86a1.61,1.61,0,0,0,.22-2,19,19,0,0,1-2.53-6.09A1.61,1.61,0,0,0,7.26,30.4h-4V24.6h4a1.61,1.61,0,0,0,1.57-1.26,19,19,0,0,1,2.53-6.09,1.61,1.61,0,0,0-.22-2L8.28,12.38l4.1-4.1,2.86,2.86a1.61,1.61,0,0,0,2,.22,18.92,18.92,0,0,1,6.09-2.52A1.61,1.61,0,0,0,24.6,7.26v-4h5.8v4a1.61,1.61,0,0,0,1.26,1.57,19,19,0,0,1,6.09,2.52,1.61,1.61,0,0,0,2-.22l2.86-2.86,4.1,4.1-2.86,2.86a1.61,1.61,0,0,0-.22,2,19,19,0,0,1,2.53,6.09,1.61,1.61,0,0,0,1.57,1.26h4Z"/><path class="cls-1" d="M27.5,20.84a5.56,5.56,0,1,0,5.56,5.56,5.57,5.57,0,0,0-5.56-5.56m0,7.9a2.34,2.34,0,1,1,2.34-2.34,2.34,2.34,0,0,1-2.34,2.34"/></g></g></svg>