<svg xmlns="http://www.w3.org/2000/svg" viewBox="0 0 55 55"><defs><style>.cls-1{fill:#fff;}</style></defs><title>Asset 9</title><g id="Layer_2" data-name="Layer 2"><g id="Layer_1-2" data-name="Layer 1"><path class="cls-1" d="M40.39,6.45a1.61,1.61,0,1,1-1.61,1.61,1.61,1.61,0,0,1,1.61-1.61"/><path class="cls-1" d="M46.84,6.45a1.61,1.61,0,1,1-1.61,1.61,1.61,1.61,0,0,1,1.61-1.61"/><path class="cls-1" d="M46.84,0H40.39a8.06,8.06,0,0,0-7.74,10.3l-1.81,1.81A11.28,11.28,0,0,0,9.78,17.73V27.5a11.29,11.29,0,0,0,6.37,10.15,1.61,1.61,0,0,1-1.54,1.13H11.39A11.45,11.45,0,0,0,0,50.17v3.22A1.61,1.61,0,0,0,1.61,55H40.39A1.61,1.61,0,0,0,42,53.39V50.17A11.35,11.35,0,0,0,30.72,38.78H27.5A1.61,1.61,0,0,1,26,37.65,11.29,11.29,0,0,0,32.33,27.5V17.73a11.42,11.42,0,0,0-.11-1.61H46.84A8.14,8.14,0,0,0,55,8.06,8.14,8.14,0,0,0,46.84,0M21.06,9.67a8.05,8.05,0,0,1,6.44,3.22H25.76a7.72,7.72,0,0,0-6.89,3.9,4.83,4.83,0,0,1-4.26,2.55H13V17.73a8.07,8.07,0,0,1,8.06-8.06m17.72,40.5v1.61H3.22V50.17A8.27,8.27,0,0,1,11.39,42h1.77a8.06,8.06,0,0,0,15.79,0h1.77a8.12,8.12,0,0,1,8.06,8.16M25.72,41.66a4.83,4.83,0,0,1-9.33,0,4.86,4.86,0,0,0,2.83-3,11.26,11.26,0,0,0,3.68,0,4.86,4.86,0,0,0,2.83,3M29.11,27.5A8.06,8.06,0,1,1,13,27.5V22.56h1.61a8.05,8.05,0,0,0,7.1-4.24,4.57,4.57,0,0,1,4.05-2.2h3.19a8.06,8.06,0,0,1,.16,1.61ZM46.84,12.89H34.61l1-1A1.61,1.61,0,0,0,36,10a4.84,4.84,0,0,1,4.41-6.82h6.45a5,5,0,0,1,4.94,4.83,5,5,0,0,1-4.94,4.83"/></g></g></svg>