<svg xmlns="http://www.w3.org/2000/svg" viewBox="0 0 60.16 45.83"><defs><style>.cls-1{fill:#939292;}</style></defs><title>Asset 13</title><g id="Layer_2" data-name="Layer 2"><g id="Layer_1-2" data-name="Layer 1"><path class="cls-1" d="M58.4,35.25H56.64V1.76A1.76,1.76,0,0,0,54.88,0H5.29A1.76,1.76,0,0,0,3.53,1.76V35.25H1.76A1.76,1.76,0,0,0,0,37a8.82,8.82,0,0,0,8.82,8.81H51.35A8.82,8.82,0,0,0,60.16,37a1.76,1.76,0,0,0-1.76-1.76M7.05,3.53H53.11V35.25H7.05ZM35.37,42.3H24.8V38.78H35.37ZM3.83,38.78H21.27V42.3H8.82a5.3,5.3,0,0,1-5-3.52M51.35,42.3H38.9V38.78H56.34a5.3,5.3,0,0,1-5,3.53"/><path class="cls-1" d="M40.66,14.1h7.17a1.76,1.76,0,0,0,0-3.52H40.66a1.76,1.76,0,1,0,0,3.52"/><path class="cls-1" d="M33.61,21.15H47.83a1.76,1.76,0,0,0,0-3.52H33.61a1.76,1.76,0,1,0,0,3.52"/><path class="cls-1" d="M33.61,28.2H47.83a1.76,1.76,0,0,0,0-3.52H33.61a1.76,1.76,0,1,0,0,3.52"/><path class="cls-1" d="M28.32,19.39a8.82,8.82,0,0,0-8.81-8.81,8.92,8.92,0,0,0-8.93,8.81,8.92,8.92,0,0,0,8.93,8.81,8.82,8.82,0,0,0,8.81-8.81m-3.83-1.76H21.27V14.4a5.3,5.3,0,0,1,3.22,3.22m-5,7.05a5.42,5.42,0,0,1-5.4-5.29,5.38,5.38,0,0,1,3.64-5v5a1.76,1.76,0,0,0,1.76,1.76h5a5.29,5.29,0,0,1-5,3.53"/></g></g></svg>