<svg xmlns="http://www.w3.org/2000/svg" viewBox="0 0 55 52.28"><defs><style>.cls-1{fill:#fff;}</style></defs><title>Asset 1</title><g id="Layer_2" data-name="Layer 2"><g id="Layer_1-2" data-name="Layer 1"><path class="cls-1" d="M54.08,23.23,49.43,19V5a1.62,1.62,0,0,0-1.62-1.62H36.63A1.62,1.62,0,0,0,35,5v.9L29.4.74a2.81,2.81,0,0,0-3.8,0L.92,23.23a2.82,2.82,0,0,0,1.9,4.9H6.76V50.66a1.62,1.62,0,0,0,1.62,1.62H21.91a1.62,1.62,0,0,0,1.62-1.62V37h7.95V50.66a1.62,1.62,0,0,0,1.62,1.62H46.62a1.62,1.62,0,0,0,1.62-1.62V28.13h3.94a2.82,2.82,0,0,0,1.9-4.9M46.62,24.9A1.62,1.62,0,0,0,45,26.51V49H34.71V35.36a1.62,1.62,0,0,0-1.62-1.62H21.91a1.62,1.62,0,0,0-1.62,1.62V49H10V26.51A1.62,1.62,0,0,0,8.38,24.9H3.89L27.5,3.39l8,7.32a1.62,1.62,0,0,0,2.71-1.2V6.57H46.2V19.71a1.62,1.62,0,0,0,.53,1.2l4.38,4Z"/></g></g></svg>