<svg xmlns="http://www.w3.org/2000/svg" viewBox="0 0 55 49.18"><defs><style>.cls-1{fill:#fff;}</style></defs><title>Asset 6</title><g id="Layer_2" data-name="Layer 2"><g id="Layer_1-2" data-name="Layer 1"><path class="cls-1" d="M52.12,7.25H32.68L30,1.82A3.27,3.27,0,0,0,27.1,0H9.76A3.16,3.16,0,0,0,6.71,3.25V6.71H3.05A3.16,3.16,0,0,0,0,10V46.12a3,3,0,0,0,2.88,3.05H45.41a3,3,0,0,0,2.88-3.05V42.47h3.83A3,3,0,0,0,55,39.42V10.3a3,3,0,0,0-2.88-3.05M45,45.87H3.31V10h17l3.1,6.32a1.65,1.65,0,0,0,1.49.93H45Zm6.71-6.71h-3.4V17A3,3,0,0,0,45.41,14H26L23.31,8.52a3.27,3.27,0,0,0-2.92-1.82H10V3.31h17l3.11,6.32a1.65,1.65,0,0,0,1.49.93h20Z"/></g></g></svg>