<svg xmlns="http://www.w3.org/2000/svg" viewBox="0 0 60.16 54.29"><defs><style>.cls-1{fill:#939292;}</style></defs><title>Asset 12</title><g id="Layer_2" data-name="Layer 2"><g id="Layer_1-2" data-name="Layer 1"><path class="cls-1" d="M59.11,34.13V9a5.3,5.3,0,0,0-5.29-5.29H46.89v-2a1.76,1.76,0,1,0-3.53,0v2H31.84v-2a1.76,1.76,0,1,0-3.52,0v2H16.8v-2a1.76,1.76,0,1,0-3.52,0v2h-8A5.29,5.29,0,0,0,0,9V41.48a5.29,5.29,0,0,0,5.29,5.29H32.66A14.69,14.69,0,0,0,59.11,34.13M47.24,28.58a11.19,11.19,0,0,1,9.26,9.26H47.24ZM5.29,43.24a1.76,1.76,0,0,1-1.76-1.76V9A1.76,1.76,0,0,1,5.29,7.29h8V9.4a1.76,1.76,0,1,0,3.52,0V7.29H28.32V9.4a1.76,1.76,0,1,0,3.52,0V7.29H43.36V9.4a1.76,1.76,0,1,0,3.53,0V7.29h6.93A1.77,1.77,0,0,1,55.58,9v19.9A14.69,14.69,0,0,0,31.24,43.24Zm40.19,7.52a11.16,11.16,0,0,1-1.76-22.19v11a1.76,1.76,0,0,0,1.76,1.76h11a11.18,11.18,0,0,1-11,9.4"/><path class="cls-1" d="M12.22,18.8H9.4a1.76,1.76,0,1,0,0,3.53h2.82a1.76,1.76,0,1,0,0-3.53"/><path class="cls-1" d="M22.56,18.8H19.74a1.76,1.76,0,1,0,0,3.53h2.82a1.76,1.76,0,1,0,0-3.53"/><path class="cls-1" d="M22.56,26.32H19.74a1.76,1.76,0,1,0,0,3.52h2.82a1.76,1.76,0,1,0,0-3.52"/><path class="cls-1" d="M12.22,26.32H9.4a1.76,1.76,0,1,0,0,3.52h2.82a1.76,1.76,0,1,0,0-3.52"/><path class="cls-1" d="M12.22,33.84H9.4a1.76,1.76,0,1,0,0,3.53h2.82a1.76,1.76,0,1,0,0-3.53"/><path class="cls-1" d="M22.56,33.84H19.74a1.76,1.76,0,1,0,0,3.53h2.82a1.76,1.76,0,1,0,0-3.53"/></g></g></svg>