<svg xmlns="http://www.w3.org/2000/svg" viewBox="0 0 55 55"><defs><style>.cls-1{fill:#fff;}</style></defs><title>Asset 7</title><g id="Layer_2" data-name="Layer 2"><g id="Layer_1-2" data-name="Layer 1"><path class="cls-1" d="M51.78,6.55H38.67V1.61A1.61,1.61,0,0,0,37.05,0H1.62A1.61,1.61,0,0,0,0,1.61V53.39a1.61,1.61,0,0,0,2.57,1.29l3.51-2.6L9.5,54.67a1.61,1.61,0,0,0,1.93,0L15,52.08l3.4,2.59a1.61,1.61,0,0,0,1.94,0l3.5-2.6,3.4,2.59a1.61,1.61,0,0,0,1.94,0l3.51-2.61,3.44,2.6a1.61,1.61,0,0,0,2.58-1.29V32.33H51.78A3.23,3.23,0,0,0,55,29.11V9.77a3.23,3.23,0,0,0-3.22-3.22M38.67,16.17H51.78v3.28H38.67Zm13.11-3.22H38.67V9.77H51.78ZM35.44,50.15l-1.82-1.37a1.61,1.61,0,0,0-1.93,0l-3.51,2.6-3.41-2.59a1.61,1.61,0,0,0-1.94,0l-3.5,2.6-3.4-2.59a1.61,1.61,0,0,0-1.93,0l-3.52,2.61L7.07,48.78a1.61,1.61,0,0,0-1.93,0L3.22,50.18v-47H35.44Zm3.22-27.48H51.78v6.45H38.67Z"/><path class="cls-1" d="M18.8,35.45a1.49,1.49,0,0,1,1.42.1,1.61,1.61,0,1,0,2.18-2.37,4,4,0,0,0-1.53-.86,1.61,1.61,0,0,0-3.22,0v.08a3.74,3.74,0,0,0-1.92,5.18,5.23,5.23,0,0,0,3,2.21c.66.26,1.77.65,1.69,1.36a1.14,1.14,0,0,1-.64.83,2.83,2.83,0,0,1-2.26-.34,1.61,1.61,0,0,0-1.77,2.7,6.13,6.13,0,0,0,1.91.8v0a1.61,1.61,0,1,0,3.22,0V45A4.09,4.09,0,0,0,22,37.92c-1.35-1-3.11-1.25-3.45-1.86a.55.55,0,0,1,.25-.6"/><path class="cls-1" d="M8.07,13h13a1.61,1.61,0,1,0,0-3.22h-13a1.61,1.61,0,0,0,0,3.22"/><path class="cls-1" d="M8.07,19.42h13a1.61,1.61,0,1,0,0-3.22h-13a1.61,1.61,0,0,0,0,3.22"/><path class="cls-1" d="M22.66,24.22A1.61,1.61,0,0,0,21,22.61H8.14a1.61,1.61,0,0,0,0,3.22H21a1.61,1.61,0,0,0,1.61-1.61"/><path class="cls-1" d="M27.5,13h3.22a1.61,1.61,0,0,0,0-3.22H27.5a1.61,1.61,0,0,0,0,3.22"/><path class="cls-1" d="M27.5,19.42h3.22a1.61,1.61,0,0,0,0-3.22H27.5a1.61,1.61,0,0,0,0,3.22"/><path class="cls-1" d="M27.5,25.83h3.22a1.61,1.61,0,0,0,0-3.22H27.5a1.61,1.61,0,0,0,0,3.22"/></g></g></svg>