<svg xmlns="http://www.w3.org/2000/svg" viewBox="0 0 130.87 148.51"><defs><style>.cls-1{fill:#e3e0e4;}.cls-2{fill:#ccc;}.cls-3{fill:#dc4955;}.cls-4{fill:#c42430;}.cls-5{fill:#f9f8f9;}</style></defs><title>png</title><g id="Layer_2" data-name="Layer 2"><g id="Layer_1-2" data-name="Layer 1"><path class="cls-1" d="M124.39,135.25a13.27,13.27,0,0,1-13.29,13.26H19.77A13.27,13.27,0,0,1,6.48,135.25v-122A13.27,13.27,0,0,1,19.77,0H76.63a10,10,0,0,1,7.05,2.92l37.8,37.8a9.94,9.94,0,0,1,2.91,7Z"/><path class="cls-2" d="M28.73,148.51h-9A13.27,13.27,0,0,1,6.48,135.24v-122A13.27,13.27,0,0,1,19.76,0h9A13.27,13.27,0,0,0,15.44,13.26v122a13.27,13.27,0,0,0,13.29,13.26"/><path class="cls-1" d="M124.39,47.75V52.6H89.74a18,18,0,0,1-17.95-18V0h4.83a10,10,0,0,1,7.05,2.92l37.8,37.8a9.94,9.94,0,0,1,2.91,7"/><path class="cls-3" d="M123.5,43.64H89.74a9,9,0,0,1-9-9V.9a9.92,9.92,0,0,1,2.92,2l37.8,37.81a9.86,9.86,0,0,1,2,2.91"/><path class="cls-3" d="M118.92,128.78H12a12,12,0,0,1-12-12V73.21a12,12,0,0,1,12-12h107a12,12,0,0,1,12,12v43.62a12,12,0,0,1-12,12"/><path class="cls-4" d="M19.42,128.78H12a12,12,0,0,1-12-12V73.21a12,12,0,0,1,12-12h7.47a12,12,0,0,0-12,12v43.62a12,12,0,0,0,12,12"/><path class="cls-5" d="M47.28,114.29A2.24,2.24,0,0,1,45,112.05v-34a2.24,2.24,0,0,1,4.09-1.27l19.73,28.57L68.59,78a2.24,2.24,0,0,1,2.22-2.26h0A2.24,2.24,0,0,1,73.07,78l.32,32.91a2.9,2.9,0,0,1-1.91,2.91,2.72,2.72,0,0,1-3.06-1.18L49.52,85.24v26.81a2.24,2.24,0,0,1-2.24,2.24"/><path class="cls-5" d="M97.14,114.29A19.27,19.27,0,1,1,107.92,79a2.24,2.24,0,1,1-2.51,3.72,14.79,14.79,0,1,0-8.27,27.05c8.2,0,11.69-6.34,12.34-12.55h-7.83a2.24,2.24,0,0,1,0-4.48h10.19A2.24,2.24,0,0,1,114.08,95a21.34,21.34,0,0,1-4.32,13.46,15.68,15.68,0,0,1-12.62,5.82"/><path class="cls-5" d="M19,114.29a2.24,2.24,0,0,1-2.24-2.24V78a2.24,2.24,0,1,1,4.48,0v34.06A2.24,2.24,0,0,1,19,114.29"/><path class="cls-5" d="M19.1,99.5a2.24,2.24,0,0,1-2.24-2.23c0-.07,0-7,0-9.67,0-2.2,0-9.6,0-9.6A2.24,2.24,0,0,1,19,75.75h9.48a11.86,11.86,0,1,1,0,23.71c-2.59,0-9.34,0-9.4,0Zm2.18-19.27c0,2.37,0,6,0,7.37,0,1.68,0,5.12,0,7.4l7.19,0a7.37,7.37,0,1,0,0-14.74Z"/></g></g></svg>