<svg xmlns="http://www.w3.org/2000/svg" viewBox="0 0 130.88 148.51"><defs><style>.cls-1{fill:#e3e0e4;}.cls-2{fill:#ccc;}.cls-3{fill:#9ec8fc;}.cls-4{fill:#62a4fb;}.cls-5{fill:#f9f8f9;}</style></defs><title>jpg</title><g id="Layer_2" data-name="Layer 2"><g id="Layer_1-2" data-name="Layer 1"><path class="cls-1" d="M124.39,135.25a13.27,13.27,0,0,1-13.29,13.26H19.77A13.27,13.27,0,0,1,6.48,135.25v-122A13.27,13.27,0,0,1,19.77,0H76.63a10,10,0,0,1,7.05,2.92l37.8,37.8a9.94,9.94,0,0,1,2.91,7Z"/><path class="cls-2" d="M28.73,148.51h-9A13.27,13.27,0,0,1,6.48,135.24v-122A13.27,13.27,0,0,1,19.77,0h9A13.27,13.27,0,0,0,15.45,13.26v122a13.27,13.27,0,0,0,13.28,13.26"/><path class="cls-1" d="M124.39,47.75V52.6H89.75a18,18,0,0,1-17.95-18V0h4.83a10,10,0,0,1,7.05,2.92l37.8,37.8a9.93,9.93,0,0,1,2.91,7"/><path class="cls-3" d="M123.5,43.64H89.75a9,9,0,0,1-9-9V.9a9.89,9.89,0,0,1,2.92,2l37.8,37.8a9.84,9.84,0,0,1,2,2.91"/><path class="cls-3" d="M118.92,128.78H12a12,12,0,0,1-12-12V73.21a12,12,0,0,1,12-12h107a12,12,0,0,1,12,12v43.62a12,12,0,0,1-12,12"/><path class="cls-4" d="M19.42,128.78H12a12,12,0,0,1-12-12V73.21a12,12,0,0,1,12-12h7.47a12,12,0,0,0-12,12v43.62a12,12,0,0,0,12,12"/><path class="cls-5" d="M37,75.75A2.24,2.24,0,0,0,34.72,78v27.22a4.66,4.66,0,0,1-2.35,4.09c-2.85,1.59-5.69-1.13-5.83-1.26a2.24,2.24,0,0,0-3.17,3.17,11.06,11.06,0,0,0,7.11,3.1,8.25,8.25,0,0,0,4.06-1.09,9.14,9.14,0,0,0,4.66-8V78A2.24,2.24,0,0,0,37,75.75"/><path class="cls-5" d="M105.91,92.78H95.72a2.24,2.24,0,1,0,0,4.48h7.83c-.66,6.21-4.14,12.55-12.34,12.55a14.79,14.79,0,1,1,8.27-27.05A2.24,2.24,0,1,0,102,79a19.27,19.27,0,1,0-10.78,35.25,15.68,15.68,0,0,0,12.62-5.82A21.32,21.32,0,0,0,108.15,95a2.24,2.24,0,0,0-2.24-2.24"/><path class="cls-5" d="M55.43,75.67H45.81c-2,0-2.07.86-2.07,2.07V112.3a2.07,2.07,0,1,0,4.14,0v-13l7.55,0a11.83,11.83,0,1,0,0-23.65m0,19.51-7.5,0c0-2.31,0-6,0-7.71,0-1.48,0-5.28,0-7.68h7.54a7.68,7.68,0,1,1,0,15.36"/></g></g></svg>