<svg xmlns="http://www.w3.org/2000/svg" viewBox="0 0 132.19 150"><defs><style>.cls-1{fill:#e3e0e4;}.cls-2{fill:#ccc;}.cls-3{fill:#dc4955;}.cls-4{fill:#c42430;}.cls-5{fill:#f9f8f9;}</style></defs><title>pdf</title><g id="Layer_2" data-name="Layer 2"><g id="Layer_1-2" data-name="Layer 1"><path class="cls-1" d="M125.65,136.61A13.41,13.41,0,0,1,112.23,150H20A13.41,13.41,0,0,1,6.55,136.61V13.39A13.41,13.41,0,0,1,20,0H77.4a10.07,10.07,0,0,1,7.13,2.95l38.18,38.18a10,10,0,0,1,2.94,7.09Z"/><path class="cls-2" d="M29,150H20A13.41,13.41,0,0,1,6.55,136.6V13.39A13.41,13.41,0,0,1,20,0H29A13.41,13.41,0,0,0,15.6,13.39V136.6A13.41,13.41,0,0,0,29,150"/><path class="cls-1" d="M125.65,48.23v4.9h-35A18.15,18.15,0,0,1,72.52,35V0H77.4a10.08,10.08,0,0,1,7.12,2.95l38.18,38.19a10,10,0,0,1,2.94,7.09"/><path class="cls-3" d="M124.74,44.08H90.65A9.08,9.08,0,0,1,81.58,35V.91a10,10,0,0,1,3,2l38.18,38.19a10,10,0,0,1,2,2.94"/><path class="cls-3" d="M120.12,130.08h-108A12.07,12.07,0,0,1,0,118V73.94A12.07,12.07,0,0,1,12.07,61.87h108a12.07,12.07,0,0,1,12.07,12.07V118a12.07,12.07,0,0,1-12.07,12.07"/><path class="cls-4" d="M19.62,130.08H12.07A12.07,12.07,0,0,1,0,118V73.94A12.07,12.07,0,0,1,12.07,61.87h7.55A12.07,12.07,0,0,0,7.55,73.94V118a12.07,12.07,0,0,0,12.07,12.07"/><path class="cls-5" d="M104.79,81.16a2.26,2.26,0,1,0,0-4.53H90.95a2.26,2.26,0,0,0-2.26,2.26v34.15a2.26,2.26,0,0,0,4.53,0V97.92h10.48a2.26,2.26,0,1,0,0-4.53H93.21V81.16Z"/><path class="cls-5" d="M66.9,77H57.44a2.26,2.26,0,0,0-2.26,2.27v0h0v32.81a2.19,2.19,0,0,0,.07.54h0a2.26,2.26,0,0,0,2.26,2.26h0c.28,0,7,0,9.69-.07a14.44,14.44,0,0,0,11.4-5.8,21.54,21.54,0,0,0,4-13.08c0-11.34-6.33-19-15.75-19m.24,33.31c-1.69,0-5.09.05-7.37.06,0-3.73,0-11.1,0-14.46,0-2.81,0-10.53,0-14.39H66.9C75.17,81.55,78.12,89,78.12,96c0,8.34-4.52,14.24-11,14.36"/><path class="cls-5" d="M34,76.59H24.31c-2,0-2.08.86-2.08,2.08v34.69a2.08,2.08,0,1,0,4.16,0v-13l7.58,0a11.87,11.87,0,1,0,0-23.74m0,19.58-7.52,0c0-2.32,0-6,0-7.74,0-1.48,0-5.3,0-7.71H34a7.71,7.71,0,1,1,0,15.42"/></g></g></svg>