<svg xmlns="http://www.w3.org/2000/svg" viewBox="0 0 132.19 150"><defs><style>.cls-1{fill:#e6e6e6;}.cls-2{fill:#ccc;}.cls-3{fill:#e3e0e4;}.cls-4{fill:#b9a1d3;}.cls-5{fill:#9573bb;}.cls-6{fill:#f9f8f9;}</style></defs><title>text</title><g id="Layer_2" data-name="Layer 2"><g id="Layer_1-2" data-name="Layer 1"><path class="cls-1" d="M125.65,136.61A13.41,13.41,0,0,1,112.23,150H20A13.41,13.41,0,0,1,6.55,136.61V13.39A13.41,13.41,0,0,1,20,0H77.4a10.07,10.07,0,0,1,7.13,2.95l38.18,38.18a10,10,0,0,1,2.94,7.1Z"/><path class="cls-2" d="M29,150H20A13.41,13.41,0,0,1,6.55,136.6V13.39A13.41,13.41,0,0,1,20,0H29A13.41,13.41,0,0,0,15.6,13.39V136.6A13.41,13.41,0,0,0,29,150"/><path class="cls-3" d="M125.65,48.23v4.9h-35A18.15,18.15,0,0,1,72.52,35V0H77.4a10.08,10.08,0,0,1,7.12,2.95l38.18,38.18a10,10,0,0,1,2.94,7.1"/><path class="cls-4" d="M124.74,44.08H90.65A9.07,9.07,0,0,1,81.58,35V.91a10,10,0,0,1,2.95,2l38.18,38.18a10,10,0,0,1,2,2.94"/><path class="cls-4" d="M120.12,130.08h-108A12.07,12.07,0,0,1,0,118V73.94A12.07,12.07,0,0,1,12.07,61.87h108a12.07,12.07,0,0,1,12.07,12.07V118a12.07,12.07,0,0,1-12.07,12.07"/><path class="cls-5" d="M19.62,130.08H12.07A12.07,12.07,0,0,1,0,118V73.94A12.07,12.07,0,0,1,12.07,61.87h7.55A12.07,12.07,0,0,0,7.55,73.94V118a12.07,12.07,0,0,0,12.07,12.07"/><path class="cls-6" d="M68.87,94.75,79.21,80.08a2.26,2.26,0,0,0-3.7-2.61L66.11,90.82,56.72,77.47a2.26,2.26,0,0,0-3.7,2.6L63.34,94.75,51.27,111.87a2.26,2.26,0,1,0,3.7,2.61L66.1,98.69l11.11,15.79a2.26,2.26,0,0,0,3.7-2.6Z"/><path class="cls-6" d="M107.12,76.51h-19a2.26,2.26,0,1,0,0,4.53h7.2v32.14a2.26,2.26,0,0,0,4.53,0V81h7.27a2.26,2.26,0,1,0,0-4.53"/><path class="cls-6" d="M44.07,76.51h-19a2.26,2.26,0,1,0,0,4.53h7.2v32.14a2.26,2.26,0,0,0,4.53,0V81h7.28a2.26,2.26,0,0,0,0-4.53"/></g></g></svg>