<svg xmlns="http://www.w3.org/2000/svg" viewBox="0 0 130.87 148.5"><defs><style>.cls-1{fill:#e6e6e6;}.cls-2{fill:#ccc;}.cls-3{fill:#e3e0e4;}.cls-4{fill:#80e29e;}.cls-5{fill:#77d192;}.cls-6{fill:#f9f8f9;}</style></defs><title>xls</title><g id="Layer_2" data-name="Layer 2"><g id="Layer_1-2" data-name="Layer 1"><path class="cls-1" d="M124.39,135.24a13.27,13.27,0,0,1-13.29,13.26H19.77A13.27,13.27,0,0,1,6.48,135.24v-122A13.27,13.27,0,0,1,19.77,0H76.63a10,10,0,0,1,7.05,2.92l37.8,37.8a9.94,9.94,0,0,1,2.91,7Z"/><path class="cls-2" d="M28.73,148.5h-9A13.27,13.27,0,0,1,6.48,135.24v-122A13.27,13.27,0,0,1,19.77,0h9A13.27,13.27,0,0,0,15.45,13.26v122A13.27,13.27,0,0,0,28.73,148.5"/><path class="cls-3" d="M124.39,47.75V52.6H89.74a18,18,0,0,1-17.95-18V0h4.83a10,10,0,0,1,7.05,2.92l37.8,37.8a9.94,9.94,0,0,1,2.91,7"/><path class="cls-4" d="M123.5,43.64H89.74a9,9,0,0,1-9-9V.9a9.86,9.86,0,0,1,2.92,2l37.8,37.8a9.89,9.89,0,0,1,2,2.91"/><path class="cls-4" d="M118.92,128.78H12a12,12,0,0,1-12-12V73.21a12,12,0,0,1,12-12h107a12,12,0,0,1,12,12v43.62a12,12,0,0,1-12,12"/><path class="cls-5" d="M19.42,128.78H12a12,12,0,0,1-12-12V73.21a12,12,0,0,1,12-12h7.47a12,12,0,0,0-12,12v43.62a12,12,0,0,0,12,12"/><path class="cls-6" d="M73.18,109.78h0c-2.92,0-7.16,0-9.67,0V78A2.24,2.24,0,1,0,59,78v34a2.24,2.24,0,0,0,1.86,2.21,37.73,37.73,0,0,0,4,.06l8.3,0a2.24,2.24,0,0,0,0-4.48"/><path class="cls-6" d="M99.24,93.18c-4.52-1.67-8.7-3.49-9.6-3.88A4.33,4.33,0,0,1,87.84,85,5.5,5.5,0,0,1,92,80.67c5.89-1.77,11.13,2.45,11.24,2.54a2.24,2.24,0,0,0,2.88-3.43c-.29-.24-7.14-5.89-15.41-3.4a10,10,0,0,0-7.27,8,8.83,8.83,0,0,0,3.93,8.74,2.28,2.28,0,0,0,.31.17c.2.09,4.83,2.15,10,4.07,4.16,1.54,6.26,4,5.75,6.88-.48,2.68-3.42,5.54-7.93,5.54A13.9,13.9,0,0,1,85.3,105.5a2.24,2.24,0,0,0-3.32,3,18.45,18.45,0,0,0,13.53,5.79c6.1,0,11.41-4,12.35-9.23.7-3.95-1.19-9.14-8.61-11.88"/><path class="cls-6" d="M40.71,93.81,50.94,79.28a2.24,2.24,0,0,0-3.67-2.58L38,89.92,28.67,76.7A2.24,2.24,0,0,0,25,79.28L35.23,93.81l-11.94,17a2.24,2.24,0,0,0,.54,3.12,2.21,2.21,0,0,0,1.29.41,2.24,2.24,0,0,0,1.83-1L38,97.7l11,15.64a2.24,2.24,0,1,0,3.66-2.58Z"/></g></g></svg>