<svg xmlns="http://www.w3.org/2000/svg" viewBox="0 0 130.88 148.51"><defs><style>.cls-1{fill:#e6e6e6;}.cls-2{fill:#ccc;}.cls-3{fill:#e3e0e4;}.cls-4{fill:#fbb03b;}.cls-5{fill:#f7931e;}.cls-6{fill:#f9f8f9;}</style></defs><title>zip</title><g id="Layer_2" data-name="Layer 2"><g id="Layer_1-2" data-name="Layer 1"><path class="cls-1" d="M124.39,135.25a13.27,13.27,0,0,1-13.29,13.26H19.77A13.27,13.27,0,0,1,6.48,135.25v-122A13.27,13.27,0,0,1,19.77,0H76.63a10,10,0,0,1,7.05,2.92l37.8,37.8a9.93,9.93,0,0,1,2.91,7Z"/><path class="cls-2" d="M28.73,148.5h-9A13.27,13.27,0,0,1,6.48,135.24v-122A13.27,13.27,0,0,1,19.77,0h9A13.27,13.27,0,0,0,15.45,13.26v122A13.27,13.27,0,0,0,28.73,148.5"/><path class="cls-3" d="M124.39,47.75V52.6H89.74A18,18,0,0,1,71.8,34.65V0h4.83a10,10,0,0,1,7.05,2.92l37.8,37.8a9.94,9.94,0,0,1,2.91,7"/><path class="cls-4" d="M123.5,43.64H89.74a9,9,0,0,1-9-9V.9a9.89,9.89,0,0,1,2.92,2l37.8,37.8a9.87,9.87,0,0,1,2,2.91"/><path class="cls-4" d="M118.92,128.78H12a12,12,0,0,1-12-12V73.21a12,12,0,0,1,12-12h107a12,12,0,0,1,12,12v43.63a12,12,0,0,1-12,12"/><path class="cls-5" d="M19.42,128.78H12a12,12,0,0,1-12-12V73.21a12,12,0,0,1,12-12h7.47a12,12,0,0,0-12,12v43.63a12,12,0,0,0,12,12"/><path class="cls-6" d="M67.32,74.09a2.24,2.24,0,0,0-2.24,2.24v37.38a2.24,2.24,0,1,0,4.48,0V76.33a2.24,2.24,0,0,0-2.24-2.24"/><path class="cls-6" d="M55.37,111.47H34.57l22.1-33.91a2.24,2.24,0,0,0-1.88-3.47H31.21a2.24,2.24,0,1,0,0,4.48H50.66l-22.1,33.91a2.24,2.24,0,0,0,1.88,3.46H55.37a2.24,2.24,0,0,0,0-4.48"/><path class="cls-6" d="M89.68,74.09H79.28c-2.13,0-2.24.93-2.24,2.24v37.38a2.24,2.24,0,1,0,4.48,0v-14l8.17,0a12.79,12.79,0,1,0,0-25.58m0,21.1-8.11,0c0-2.5,0-6.44,0-8.34,0-1.6,0-5.71,0-8.31h8.16a8.31,8.31,0,1,1,0,16.61"/></g></g></svg>